<svg width="819" height="246" viewBox="0 0 819 246" fill="none" xmlns="http://www.w3.org/2000/svg">
<path fill-rule="evenodd" clip-rule="evenodd" d="M806.537 17.7504C806.681 17.8496 806.849 17.9024 807.022 17.9024C807.193 17.9024 807.36 17.8503 807.504 17.7524C807.647 17.6544 807.761 17.5148 807.83 17.3504L809.044 14.4141C809.576 13.1236 810.554 12.0941 811.78 11.5337L814.569 10.2542C814.727 10.1818 814.862 10.0623 814.956 9.91045C815.051 9.7586 815.101 9.58099 815.101 9.39943C815.101 9.21787 815.051 9.04027 814.956 8.88841C814.862 8.73656 814.727 8.61708 814.569 8.54462L811.784 7.26737C810.558 6.70655 809.58 5.67717 809.047 4.38693L807.833 1.45071C807.764 1.28445 807.651 1.14298 807.507 1.04363C807.362 0.944272 807.194 0.891354 807.022 0.891357C806.849 0.891291 806.681 0.944101 806.537 1.04332C806.393 1.14254 806.279 1.28386 806.21 1.44997L804.995 4.3862C804.461 5.67377 803.484 6.70061 802.26 7.26003L799.471 8.53802C799.313 8.61047 799.178 8.72996 799.083 8.88181C798.989 9.03366 798.939 9.21127 798.939 9.39283C798.939 9.57438 798.989 9.75199 799.083 9.90385C799.178 10.0557 799.313 10.1752 799.471 10.2476L802.26 11.5271C803.485 12.0873 804.463 13.1169 804.995 14.4075L806.21 17.3438C806.279 17.5099 806.393 17.6512 806.537 17.7504ZM748.978 40.0946C748.72 40.094 748.468 40.0144 748.253 39.8656C748.037 39.7167 747.867 39.505 747.764 39.2563L744.846 32.2093C743.486 28.911 740.988 26.2794 737.855 24.8468L731.162 21.774C730.924 21.6664 730.721 21.4876 730.578 21.2598C730.436 21.032 730.36 20.7652 730.36 20.4923C730.36 20.2195 730.436 19.9527 730.578 19.7249C730.721 19.4971 730.924 19.3183 731.162 19.2107L737.855 16.1379C740.987 14.7057 743.485 12.0753 744.846 8.77828L747.764 1.73135C747.867 1.48174 748.037 1.2693 748.253 1.1201C748.47 0.970892 748.723 0.891414 748.981 0.891414C749.24 0.891414 749.493 0.970892 749.709 1.1201C749.926 1.2693 750.096 1.48174 750.199 1.73135L753.117 8.77828C754.477 12.0753 756.976 14.7057 760.107 16.1379L766.801 19.2107C767.039 19.3183 767.242 19.4971 767.384 19.7249C767.527 19.9527 767.603 20.2195 767.603 20.4923C767.603 20.7652 767.527 21.032 767.384 21.2598C767.242 21.4876 767.039 21.6664 766.801 21.774L760.107 24.8468C756.975 26.2794 754.476 28.911 753.117 32.2093L750.199 39.2563C750.095 39.506 749.924 39.7183 749.707 39.8672C749.491 40.0162 749.237 40.0952 748.978 40.0946ZM807.534 65.8726C807.327 65.8725 807.124 65.8088 806.951 65.6892C806.778 65.5697 806.641 65.3995 806.558 65.1995L804.8 60.9588C804.008 59.0404 802.554 57.5098 800.732 56.6763L796.704 54.828C796.514 54.7408 796.352 54.5972 796.239 54.4146C796.125 54.2321 796.065 54.0186 796.065 53.8003C796.065 53.5821 796.125 53.3686 796.239 53.186C796.352 53.0034 796.514 52.8598 796.704 52.7726L800.735 50.9258C802.556 50.0912 804.009 48.5602 804.8 46.6418L806.555 42.4012C806.638 42.2013 806.775 42.0313 806.948 41.9119C807.122 41.7925 807.324 41.7289 807.531 41.7289C807.739 41.7289 807.941 41.7925 808.115 41.9119C808.288 42.0313 808.425 42.2013 808.508 42.4012L810.263 46.6418C811.055 48.5615 812.51 50.0927 814.334 50.9258L818.362 52.7741C818.551 52.8615 818.713 53.0052 818.826 53.1878C818.94 53.3703 819 53.5837 819 53.8018C819 54.0199 818.94 54.2333 818.826 54.4158C818.713 54.5983 818.551 54.7421 818.362 54.8295L814.334 56.6778C812.512 57.5115 811.058 59.0421 810.267 60.9603L808.511 65.2009C808.428 65.4008 808.291 65.5707 808.118 65.69C807.944 65.8093 807.742 65.8728 807.534 65.8726ZM59.3983 245.109C59.0972 245.109 58.8028 245.016 58.551 244.842C58.2992 244.669 58.101 244.422 57.9805 244.131L54.5814 235.924C52.997 232.084 50.0873 229.021 46.4402 227.353L38.6449 223.775C38.3691 223.648 38.1344 223.439 37.9696 223.174C37.8048 222.909 37.717 222.599 37.717 222.282C37.717 221.965 37.8048 221.655 37.9696 221.39C38.1344 221.125 38.3691 220.916 38.6449 220.789L46.4402 217.209C50.0879 215.541 52.9978 212.476 54.5814 208.636L57.9805 200.428C58.0995 200.136 58.2973 199.888 58.5493 199.713C58.8013 199.538 59.0965 199.445 59.3983 199.445C59.7001 199.445 59.9953 199.538 60.2473 199.713C60.4993 199.888 60.697 200.136 60.8161 200.428L64.2151 208.636C65.7991 212.475 68.7086 215.538 72.3555 217.206L80.1508 220.785C80.4269 220.912 80.6619 221.121 80.827 221.386C80.992 221.651 81.08 221.961 81.08 222.279C81.08 222.596 80.992 222.906 80.827 223.171C80.6619 223.436 80.4269 223.645 80.1508 223.772L72.3555 227.349C68.7085 229.017 65.7989 232.081 64.2151 235.921L60.8161 244.128C60.6961 244.419 60.4981 244.667 60.2462 244.841C59.9944 245.015 59.6997 245.109 59.3983 245.109ZM22.9597 173.197C23.1616 173.336 23.3977 173.41 23.6391 173.41C23.8801 173.411 24.1158 173.337 24.3177 173.199C24.5196 173.06 24.6788 172.863 24.7759 172.631L26.8206 167.692C27.7425 165.458 29.4352 163.675 31.557 162.703L36.2496 160.552C36.4707 160.45 36.6588 160.282 36.7909 160.07C36.9229 159.857 36.9933 159.609 36.9933 159.355C36.9933 159.101 36.9229 158.852 36.7909 158.64C36.6588 158.427 36.4707 158.26 36.2496 158.158L31.5579 156.005C29.4357 155.035 27.7426 153.252 26.8206 151.018L24.7759 146.079C24.6795 145.846 24.5206 145.648 24.3187 145.508C24.1167 145.369 23.8806 145.295 23.6391 145.295C23.3977 145.295 23.1615 145.369 22.9596 145.508C22.7576 145.648 22.5987 145.846 22.5023 146.079L20.4577 151.019C19.5357 153.252 17.8429 155.035 15.7212 156.005L11.0294 158.158C10.8084 158.26 10.6203 158.427 10.4882 158.64C10.3561 158.852 10.2858 159.101 10.2858 159.355C10.2858 159.609 10.3561 159.857 10.4882 160.07C10.6203 160.282 10.8084 160.45 11.0294 160.552L15.7204 162.703C17.8417 163.673 19.5344 165.455 20.4569 167.688L22.5023 172.626C22.5988 172.859 22.7578 173.057 22.9597 173.197ZM9.40962 215.649C9.20898 215.649 9.01273 215.587 8.84486 215.471C8.67699 215.355 8.54479 215.191 8.46444 214.997L7.04992 211.578C6.42942 210.075 5.29039 208.875 3.86278 208.222L0.6188 206.735C0.434881 206.65 0.278373 206.511 0.168459 206.334C0.058545 206.157 0 205.951 0 205.739C0 205.528 0.058545 205.322 0.168459 205.145C0.278373 204.968 0.434881 204.829 0.6188 204.744L3.86684 203.255C5.29198 202.603 6.42935 201.406 7.04992 199.906L8.46444 196.486C8.54479 196.292 8.67699 196.128 8.84486 196.012C9.01273 195.896 9.20898 195.835 9.40962 195.835C9.61038 195.835 9.80677 195.896 9.97478 196.012C10.1428 196.128 10.2751 196.292 10.3556 196.486L11.7693 199.906C12.3901 201.407 13.5288 202.605 14.9557 203.257L18.2037 204.746C18.3876 204.831 18.5441 204.97 18.654 205.146C18.764 205.323 18.8225 205.53 18.8225 205.741C18.8225 205.952 18.764 206.159 18.654 206.336C18.5441 206.513 18.3876 206.652 18.2037 206.736L14.9557 208.225C13.5283 208.878 12.3895 210.077 11.7693 211.579L10.3556 214.999C10.2749 215.192 10.1424 215.357 9.97445 215.472C9.80646 215.587 9.6102 215.649 9.40962 215.649ZM64.3948 173.936V129.398H84.1929C87.2388 129.398 89.777 129.991 91.8076 131.179C93.951 132.367 95.6431 134.03 96.884 136.167C98.125 138.186 98.971 140.621 99.4223 143.472C99.9863 146.203 100.268 149.113 100.268 152.201C100.268 155.17 99.9863 158.021 99.4223 160.753C98.971 163.365 98.125 165.681 96.884 167.7C95.6431 169.601 93.951 171.145 91.8076 172.332C89.777 173.401 87.2388 173.936 84.1929 173.936H64.3948ZM94.8535 86.8189C95.6431 89.4318 96.1508 92.1635 96.3764 95.014C96.3764 97.9832 96.0944 100.834 95.5303 103.565C95.0791 106.178 94.233 108.494 92.9921 110.513C91.7512 112.414 90.1155 113.958 88.0849 115.145C86.0543 116.333 83.4597 116.927 80.301 116.927H64.3948V76.6642C68.6816 74.7639 71.9531 73.6356 74.2093 73.2793C76.5783 72.923 78.3268 72.7448 79.4549 72.7448C82.1624 72.7448 84.5314 73.398 86.5619 74.7045C88.5925 75.8922 90.2847 77.555 91.6384 79.6928C93.1049 81.7119 94.1766 84.0872 94.8535 86.8189ZM89.2694 61.5212C87.3516 60.571 84.5314 60.0959 80.8086 60.0959C77.65 60.0959 74.5477 60.4523 71.5018 61.1649C70.1481 61.4024 67.7791 62.0556 64.3948 63.1246C61.0105 64.0747 57.1186 65.4405 52.719 67.2221V186.585H84.1929C88.9309 186.585 92.8229 185.813 95.8688 184.269C98.9146 182.606 101.453 180.765 103.483 178.746C103.935 178.39 104.668 177.499 105.683 176.074C106.699 174.648 107.714 172.808 108.729 170.551C109.744 168.176 110.59 165.444 111.267 162.356C112.057 159.268 112.395 155.883 112.283 152.201C112.283 149.351 112.113 146.678 111.775 144.184C111.549 141.571 110.985 139.077 110.083 136.702C109.18 134.326 107.827 132.01 106.022 129.754C104.329 127.497 102.017 125.3 99.0838 123.162C101.34 121.143 103.089 119.005 104.329 116.749C105.683 114.373 106.699 111.998 107.375 109.623C108.052 107.128 108.447 104.634 108.56 102.14C108.785 99.5272 108.898 96.9143 108.898 94.3014C108.898 87.4128 107.375 81.2962 104.329 75.9516C101.284 70.4882 97.7301 66.4501 93.669 63.8372L93.4997 63.659C92.7101 63.0652 91.3 62.3526 89.2694 61.5212ZM156.039 73.4574C158.07 72.9824 159.987 72.7448 161.792 72.7448C165.515 72.7448 168.899 73.1605 171.945 73.9919C175.104 74.8233 177.811 76.1891 180.068 78.0894C182.324 79.8709 184.072 82.3057 185.313 85.3937C186.554 88.3629 187.175 91.9854 187.175 96.261C187.175 105.169 184.862 111.998 180.237 116.749C175.612 121.499 169.464 123.875 161.792 123.875H144.533V76.6642C146.45 75.9516 148.424 75.2984 150.455 74.7045C152.147 74.2294 154.009 73.8137 156.039 73.4574ZM189.374 186.585H200.881L180.237 132.782C182.944 131.357 185.426 129.398 187.682 126.903C190.051 124.409 192.025 121.559 193.605 118.352C195.297 115.027 196.594 111.523 197.497 107.841C198.399 104.04 198.85 100.18 198.85 96.261C198.85 90.5602 197.835 85.5125 195.805 81.118C193.887 76.6048 191.292 72.8042 188.021 69.7162C184.749 66.5095 180.97 64.1341 176.683 62.5901C172.397 60.9273 167.884 60.0959 163.146 60.0959C159.649 60.0959 156.152 60.5116 152.655 61.343C149.158 62.0556 145.943 62.887 143.01 63.8372C139.625 64.9061 136.354 66.0938 133.195 67.4002V186.585H144.363V136.524H162.977H165.854C166.869 136.405 167.828 136.286 168.73 136.167L189.374 186.585ZM218.963 61.8775H229.962V186.585H218.963V61.8775ZM267.324 61.8775H255.648V186.585H304.213V174.292H267.324V61.8775ZM331.606 61.8775V117.283H369.679V61.8775H381.524V186.407H369.679V129.932H331.606V186.407H319.93V61.8775H331.606ZM433.579 75.5953H433.748L446.778 139.552H420.211C422.467 128.744 424.667 118.115 426.81 107.663C429.067 97.0924 431.323 86.4032 433.579 75.5953ZM398.382 186.407H409.889L417.165 152.379H449.824L457.269 186.407H468.606L441.532 61.6993H425.457L398.382 186.407ZM553.872 61.8775V186.585H535.935L496.508 84.8592H496.339V186.585H485.509V61.8775H499.385L542.535 172.154H542.873V61.8775H553.872ZM608.472 73.8137H635.038V61.8775H569.721V73.8137H597.134V186.585H608.472V73.8137ZM699.996 61.8775V74.3482H662.599V117.639H691.873V130.11H662.599V173.758H700.334V186.407H650.923V61.8775H699.996ZM779.065 163.781C780.757 159.268 781.603 154.517 781.603 149.529C781.603 144.541 780.701 140.265 778.896 136.702C775.342 132.159 774.327 130.511 773.82 129.687C773.65 129.412 773.537 129.229 773.406 129.061C773.142 128.724 772.804 128.447 771.79 127.617L771.789 127.616C768.856 125.122 765.359 123.103 761.298 121.559C757.237 120.015 752.893 118.827 748.268 117.996C746.012 117.521 743.643 116.749 741.161 115.68C738.679 114.611 736.367 113.186 734.223 111.404C732.193 109.623 730.501 107.485 729.147 104.991C727.793 102.378 727.116 99.349 727.116 95.9047C727.116 92.9355 727.624 90.0851 728.639 87.3534C729.655 84.5029 731.065 82.0088 732.87 79.871C734.675 77.7331 736.818 76.011 739.3 74.7045C741.782 73.398 744.433 72.7448 747.253 72.7448C749.509 72.7448 751.878 73.1011 754.36 73.8137C756.955 74.4076 759.38 75.0608 761.636 75.7734C764.231 76.6048 766.825 77.555 769.42 78.6239L773.143 66.5095C770.21 65.3218 767.277 64.2529 764.344 63.3027C761.749 62.4713 758.985 61.7587 756.052 61.1649C753.119 60.4523 750.299 60.0959 747.591 60.0959C743.192 60.0959 739.018 61.1055 735.069 63.1246C731.234 65.0248 727.85 67.6378 724.917 70.9633C721.983 74.1701 719.671 77.9706 717.979 82.3651C716.287 86.7595 715.44 91.4509 715.44 96.4392C715.44 101.309 716.23 105.703 717.81 109.623C719.502 113.423 721.701 116.749 724.409 119.599C727.229 122.45 730.501 124.825 734.223 126.725C737.946 128.507 741.951 129.754 746.238 130.466C748.832 130.942 751.483 131.595 754.191 132.426C757.011 133.258 759.549 134.445 761.805 135.989C764.174 137.414 766.092 139.255 767.559 141.512C769.025 143.769 769.758 146.56 769.758 149.885C769.758 153.211 769.194 156.299 768.066 159.149C767.051 162 765.585 164.494 763.667 166.632C761.862 168.769 759.662 170.492 757.067 171.798C754.473 172.986 751.709 173.58 748.776 173.58C745.956 173.58 742.74 173.045 739.131 171.976C735.521 170.788 732.08 169.482 728.808 168.057C725.086 166.513 721.25 164.672 717.302 162.534L713.241 174.292C716.738 176.549 720.461 178.568 724.409 180.349C727.793 181.893 731.629 183.319 735.915 184.625C740.202 185.813 744.545 186.407 748.945 186.407C753.57 186.407 757.857 185.456 761.805 183.556C765.754 181.537 769.194 178.865 772.127 175.539C775.06 172.214 777.373 168.294 779.065 163.781Z" fill="#5869FF"/>
</svg>
